<svg xmlns="http://www.w3.org/2000/svg" xmlns:xlink="http://www.w3.org/1999/xlink" width="962" height="594" version="1.1" viewBox="0 0 962 594"><title>Speed &amp; Performance</title><desc>Created with Sketch.</desc><defs><rect id="path-1" width="940" height="560" x="11" y="17" rx="4"/><filter id="filter-2" width="200%" height="200%" x="-50%" y="-50%" filterUnits="objectBoundingBox"><feOffset dx="0" dy="5" in="SourceAlpha" result="shadowOffsetOuter1"/><feGaussianBlur in="shadowOffsetOuter1" result="shadowBlurOuter1" stdDeviation="2.5"/><feColorMatrix in="shadowBlurOuter1" type="matrix" values="0 0 0 0 0 0 0 0 0 0 0 0 0 0 0 0 0 0 0.25 0"/></filter><circle id="path-3" cx="6" cy="6" r="6"/><filter id="filter-4" width="200%" height="200%" x="-50%" y="-50%" filterUnits="objectBoundingBox"><feOffset dx="0" dy="1" in="SourceAlpha" result="shadowOffsetOuter1"/><feGaussianBlur in="shadowOffsetOuter1" result="shadowBlurOuter1" stdDeviation=".5"/><feColorMatrix in="shadowBlurOuter1" type="matrix" values="0 0 0 0 0 0 0 0 0 0 0 0 0 0 0 0 0 0 0.15 0"/></filter><circle id="path-5" cx="25" cy="6" r="6"/><filter id="filter-6" width="200%" height="200%" x="-50%" y="-50%" filterUnits="objectBoundingBox"><feOffset dx="0" dy="1" in="SourceAlpha" result="shadowOffsetOuter1"/><feGaussianBlur in="shadowOffsetOuter1" result="shadowBlurOuter1" stdDeviation=".5"/><feColorMatrix in="shadowBlurOuter1" type="matrix" values="0 0 0 0 0 0 0 0 0 0 0 0 0 0 0 0 0 0 0.15 0"/></filter><circle id="path-7" cx="45" cy="6" r="6"/><filter id="filter-8" width="200%" height="200%" x="-50%" y="-50%" filterUnits="objectBoundingBox"><feOffset dx="0" dy="1" in="SourceAlpha" result="shadowOffsetOuter1"/><feGaussianBlur in="shadowOffsetOuter1" result="shadowBlurOuter1" stdDeviation=".5"/><feColorMatrix in="shadowBlurOuter1" type="matrix" values="0 0 0 0 0 0 0 0 0 0 0 0 0 0 0 0 0 0 0.15 0"/></filter><rect id="path-9" width="19.147" height="15" x="0" y="0"/><mask id="mask-10" width="19.147" height="15" x="0" y="0" fill="#fff" maskContentUnits="userSpaceOnUse" maskUnits="objectBoundingBox"><use xlink:href="#path-9"/></mask><rect id="path-11" width="19.147" height="15" x="0" y="0"/><mask id="mask-12" width="19.147" height="15" x="0" y="0" fill="#fff" maskContentUnits="userSpaceOnUse" maskUnits="objectBoundingBox"><use xlink:href="#path-11"/></mask><rect id="path-13" width="19.147" height="15" x="0" y="0"/><mask id="mask-14" width="19.147" height="15" x="0" y="0" fill="#fff" maskContentUnits="userSpaceOnUse" maskUnits="objectBoundingBox"><use xlink:href="#path-13"/></mask><rect id="path-15" width="19.147" height="15" x="0" y="0"/><mask id="mask-16" width="19.147" height="15" x="0" y="0" fill="#fff" maskContentUnits="userSpaceOnUse" maskUnits="objectBoundingBox"><use xlink:href="#path-15"/></mask><rect id="path-17" width="19.147" height="15" x="0" y="0"/><mask id="mask-18" width="19.147" height="15" x="0" y="0" fill="#fff" maskContentUnits="userSpaceOnUse" maskUnits="objectBoundingBox"><use xlink:href="#path-17"/></mask><rect id="path-19" width="19.147" height="15" x="0" y="0"/><mask id="mask-20" width="19.147" height="15" x="0" y="0" fill="#fff" maskContentUnits="userSpaceOnUse" maskUnits="objectBoundingBox"><use xlink:href="#path-19"/></mask><rect id="path-21" width="19.147" height="15" x="0" y="0"/><mask id="mask-22" width="19.147" height="15" x="0" y="0" fill="#fff" maskContentUnits="userSpaceOnUse" maskUnits="objectBoundingBox"><use xlink:href="#path-21"/></mask><path id="path-23" d="M0,0 L304,0 L304,150.740752 L248.558542,150.740752 L0,150.740752 L0,0 Z"/><path id="path-25" d="M66.6262384,229.312333 C86.871865,252.340626 116.608936,266.883014 149.756364,266.883014 C210.758055,266.883014 260.209697,217.631474 260.209697,156.876621 C260.209697,96.1217685 210.758055,46.870229 149.756364,46.870229 C88.7546721,46.870229 39.3030303,96.1217685 39.3030303,156.876621 C39.3030303,184.618175 49.6135448,209.961324 66.6262384,229.312333 Z"/><mask id="mask-26" width="220.907" height="220.013" x="0" y="0" fill="#fff" maskContentUnits="userSpaceOnUse" maskUnits="objectBoundingBox"><use xlink:href="#path-25"/></mask><linearGradient id="linearGradient-27" x1="0%" x2="0%" y1="50%" y2="0%"><stop offset="0%" stop-color="#FFF"/><stop offset="100%" stop-color="#FFF" stop-opacity="0"/></linearGradient><rect id="path-28" width="276" height="136.765" x="0" y="0"/><linearGradient id="linearGradient-30" x1="100%" x2="44.837%" y1="61.249%" y2="61.249%"><stop offset="0%" stop-color="#ED2222"/><stop offset="100%" stop-color="#4BA4E7" stop-opacity=".297"/></linearGradient><path id="path-31" d="M65.0238664,214.583184 C81.6762853,233.511674 106.135601,245.465032 133.4,245.465032 C183.57507,245.465032 224.25,204.981907 224.25,155.043441 C224.25,105.104974 183.57507,64.6218487 133.4,64.6218487 C83.2249305,64.6218487 42.55,105.104974 42.55,155.043441 C42.55,177.846074 51.0305973,198.677299 65.0238664,214.583184 Z"/><mask id="mask-32" width="181.7" height="180.843" x="0" y="0" fill="#fff" maskContentUnits="userSpaceOnUse" maskUnits="objectBoundingBox"><use xlink:href="#path-31"/></mask></defs><g id="Page-1" fill="none" fill-rule="evenodd" stroke="none" stroke-width="1"><g id="Speed-&amp;-Performance"><g id="frame"><use fill="#000" fill-opacity="1" filter="url(#filter-2)" xlink:href="#path-1"/><use fill="#EAEAEB" fill-rule="evenodd" xlink:href="#path-1"/></g><g id="controls" transform="translate(35.000000, 38.000000)"><g id="Oval-1"><use fill="#000" fill-opacity="1" filter="url(#filter-4)" xlink:href="#path-3"/><use fill="#FF6057" fill-rule="evenodd" xlink:href="#path-3"/></g><g id="Oval-1"><use fill="#000" fill-opacity="1" filter="url(#filter-6)" xlink:href="#path-5"/><use fill="#FFC22E" fill-rule="evenodd" xlink:href="#path-5"/></g><g id="Oval-1"><use fill="#000" fill-opacity="1" filter="url(#filter-8)" xlink:href="#path-7"/><use fill="#28CA40" fill-rule="evenodd" xlink:href="#path-7"/></g></g><rect id="url-bar" width="774" height="29" x="111" y="32" fill="#FFF" rx="4"/><g id="menu" stroke="#FFF" stroke-linecap="square" stroke-width="4" transform="translate(901.000000, 38.000000)"><path id="Line" d="M0,2 L25.1782593,2"/><path id="Line" d="M0,9 L25.1782593,9"/><path id="Line" d="M0,16 L25.1782593,16"/></g><g id="homepage" transform="translate(21.000000, 74.000000)"><rect id="screen" width="920" height="491" x="0" y="0" fill="#FFF"/><g id="text" stroke="#E1E2E3" stroke-linecap="square" stroke-opacity=".7" stroke-width="11.7" transform="translate(37.000000, 202.000000)"><path id="Line" d="M0.105343511,6.80295567 L242.71468,6.80295567"/><path id="Line" d="M0.105343511,36.7142857 L242.71468,36.7142857"/></g><g id="text" stroke="#E1E2E3" stroke-linecap="square" stroke-opacity=".7" stroke-width="11.7" transform="translate(334.000000, 204.000000)"><path id="Line" d="M0.980152672,6.10344828 L243.589489,6.10344828"/><path id="Line" d="M0.980152672,36.0147783 L243.589489,36.0147783"/></g><g id="text" stroke="#E1E2E3" stroke-linecap="square" stroke-opacity=".7" stroke-width="11.7" transform="translate(627.000000, 204.000000)"><path id="Line" d="M0.651908397,6.10344828 L243.261245,6.10344828"/><path id="Line" d="M0.651908397,36.0147783 L243.261245,36.0147783"/></g><g id="box" fill="#E1E2E3" fill-opacity=".7" transform="translate(28.000000, 24.000000)"><rect id="Rectangle-70" width="265.356" height="160.57" x="0" y=".773" rx="5.2"/><rect id="Rectangle-70" width="265.356" height="160.57" x="293.973" y=".773" rx="5.2"/><rect id="Rectangle-70" width="265.356" height="160.57" x="586.644" y=".773" rx="5.2"/></g></g><g id="screen" transform="translate(21.000000, 341.000000)"><g id="Grid"><rect id="Rectangle-2" width="921" height="32.72" x="0" y="0" fill="#EFEFEF"/><rect id="Rectangle-2" width="921" height="32.72" x="0" y="66" fill="#EFEFEF"/><rect id="Rectangle-2-Copy-2" width="921" height="32.72" x="0" y="134" fill="#EFEFEF"/><rect id="Rectangle-2-Copy" width="921" height="25.72" x="0" y="200" fill="#EFEFEF"/><path id="Line" stroke="#C8C8C8" stroke-linecap="square" d="M190.552549,7.8452814e-15 L190.552549,222.385692"/><path id="Line" stroke="#C8C8C8" stroke-linecap="square" d="M259.480749,7.8452814e-15 L259.480749,222.385692"/><path id="Line" stroke="#C8C8C8" stroke-linecap="square" d="M328.408949,7.8452814e-15 L328.408949,222.385692"/><path id="Line" stroke="#C8C8C8" stroke-linecap="square" d="M397.337149,7.8452814e-15 L397.337149,222.385692"/><path id="Line" stroke="#C8C8C8" stroke-linecap="square" d="M498.814776,7.8452814e-15 L498.814776,222.385692"/><path id="Line" stroke="#C8C8C8" stroke-linecap="square" d="M564.870968,7.8452814e-15 L564.870968,222.385692"/><path id="Line" stroke="#C8C8C8" stroke-linecap="square" d="M627.097815,7.8452814e-15 L627.097815,222.385692"/><path id="Line" stroke="#0037FF" stroke-linecap="square" d="M845.849116,0.355095541 L845.849116,222.740787"/><path id="Line" stroke="red" stroke-linecap="square" d="M887.014568,0.355095541 L887.014568,222.740787"/></g><g id="Items" transform="translate(11.530697, 9.000000)"><g id="items"><use id="Rectangle-12" fill="#EFC535" stroke="#979797" stroke-opacity=".5" stroke-width="3" mask="url(#mask-10)" xlink:href="#path-9"/><rect id="Rectangle-13" width="129.24" height="15" x="31.592" y="0" fill="#DBD8D8"/><rect id="Rectangle-13" width="52.653" height="15" x="187.638" y="0" fill="#DBD8D8"/><rect id="Rectangle-13" width="52.653" height="15" x="256.566" y="0" fill="#DBD8D8"/><rect id="Rectangle-13" width="52.653" height="15" x="325.494" y="0" fill="#DBD8D8"/><rect id="Rectangle-13" width="79.459" height="15" x="398.252" y="0" fill="#DBD8D8"/><rect id="Rectangle-13" width="51.696" height="15" x="494.943" y="0" fill="#DBD8D8"/><rect id="Rectangle-13" width="48.824" height="15" x="560.999" y="0" fill="#DBD8D8"/></g><g id="items" transform="translate(0.000000, 33.000000)"><use id="Rectangle-12" fill="#9279EA" stroke="#979797" stroke-opacity=".5" stroke-width="3" mask="url(#mask-12)" xlink:href="#path-11"/><rect id="Rectangle-13" width="129.24" height="15" x="31.592" y="0" fill="#DBD8D8"/><rect id="Rectangle-13" width="52.653" height="15" x="187.638" y="0" fill="#DBD8D8"/><rect id="Rectangle-13" width="52.653" height="15" x="256.566" y="0" fill="#DBD8D8"/><rect id="Rectangle-13" width="52.653" height="15" x="325.494" y="0" fill="#DBD8D8"/><rect id="Rectangle-13" width="79.459" height="15" x="398.252" y="0" fill="#DBD8D8"/><rect id="Rectangle-13" width="51.696" height="15" x="494.943" y="0" fill="#DBD8D8"/><rect id="Rectangle-13" width="48.824" height="15" x="560.999" y="0" fill="#DBD8D8"/></g><g id="items" transform="translate(0.000000, 66.000000)"><use id="Rectangle-12" fill="#EFC535" stroke="#979797" stroke-opacity=".5" stroke-width="3" mask="url(#mask-14)" xlink:href="#path-13"/><rect id="Rectangle-13" width="129.24" height="15" x="31.592" y="0" fill="#DBD8D8"/><rect id="Rectangle-13" width="52.653" height="15" x="187.638" y="0" fill="#DBD8D8"/><rect id="Rectangle-13" width="52.653" height="15" x="256.566" y="0" fill="#DBD8D8"/><rect id="Rectangle-13" width="52.653" height="15" x="325.494" y="0" fill="#DBD8D8"/><rect id="Rectangle-13" width="79.459" height="15" x="398.252" y="0" fill="#DBD8D8"/><rect id="Rectangle-13" width="51.696" height="15" x="494.943" y="0" fill="#DBD8D8"/><rect id="Rectangle-13" width="48.824" height="15" x="560.999" y="0" fill="#DBD8D8"/></g><g id="items" transform="translate(0.000000, 99.000000)"><use id="Rectangle-12" fill="#79B256" stroke="#979797" stroke-opacity=".5" stroke-width="3" mask="url(#mask-16)" xlink:href="#path-15"/><rect id="Rectangle-13" width="129.24" height="15" x="31.592" y="0" fill="#DBD8D8"/><rect id="Rectangle-13" width="52.653" height="15" x="187.638" y="0" fill="#DBD8D8"/><rect id="Rectangle-13" width="52.653" height="15" x="256.566" y="0" fill="#DBD8D8"/><rect id="Rectangle-13" width="52.653" height="15" x="325.494" y="0" fill="#DBD8D8"/><rect id="Rectangle-13" width="79.459" height="15" x="398.252" y="0" fill="#DBD8D8"/><rect id="Rectangle-13" width="51.696" height="15" x="494.943" y="0" fill="#DBD8D8"/><rect id="Rectangle-13" width="48.824" height="15" x="560.999" y="0" fill="#DBD8D8"/></g><g id="items-" transform="translate(0.000000, 133.000000)"><use id="Rectangle-12" fill="#79B256" stroke="#979797" stroke-opacity=".5" stroke-width="3" mask="url(#mask-18)" xlink:href="#path-17"/><rect id="Rectangle-13" width="129.24" height="15" x="31.592" y="0" fill="#DBD8D8"/><rect id="Rectangle-13" width="52.653" height="15" x="187.638" y="0" fill="#DBD8D8"/><rect id="Rectangle-13" width="52.653" height="15" x="256.566" y="0" fill="#DBD8D8"/><rect id="Rectangle-13" width="52.653" height="15" x="325.494" y="0" fill="#DBD8D8"/><rect id="Rectangle-13" width="79.459" height="15" x="398.252" y="0" fill="#DBD8D8"/><rect id="Rectangle-13" width="51.696" height="15" x="494.943" y="0" fill="#DBD8D8"/><rect id="Rectangle-13" width="48.824" height="15" x="560.999" y="0" fill="#DBD8D8"/></g><g id="items" transform="translate(0.000000, 166.000000)"><use id="Rectangle-12" fill="#EFC535" stroke="#979797" stroke-opacity=".5" stroke-width="3" mask="url(#mask-20)" xlink:href="#path-19"/><rect id="Rectangle-13" width="129.24" height="15" x="31.592" y="0" fill="#DBD8D8"/><rect id="Rectangle-13" width="52.653" height="15" x="187.638" y="0" fill="#DBD8D8"/><rect id="Rectangle-13" width="52.653" height="15" x="256.566" y="0" fill="#DBD8D8"/><rect id="Rectangle-13" width="52.653" height="15" x="325.494" y="0" fill="#DBD8D8"/><rect id="Rectangle-13" width="79.459" height="15" x="398.252" y="0" fill="#DBD8D8"/><rect id="Rectangle-13" width="51.696" height="15" x="494.943" y="0" fill="#DBD8D8"/><rect id="Rectangle-13" width="48.824" height="15" x="560.999" y="0" fill="#DBD8D8"/></g><g id="items-" transform="translate(0.000000, 199.000000)"><use id="Rectangle-12" fill="#EFC535" stroke="#979797" stroke-opacity=".5" stroke-width="3" mask="url(#mask-22)" xlink:href="#path-21"/><rect id="Rectangle-13" width="129.24" height="15" x="31.592" y="0" fill="#DBD8D8"/><rect id="Rectangle-13" width="52.653" height="15" x="187.638" y="0" fill="#DBD8D8"/><rect id="Rectangle-13" width="52.653" height="15" x="256.566" y="0" fill="#DBD8D8"/><rect id="Rectangle-13" width="52.653" height="15" x="325.494" y="0" fill="#DBD8D8"/><rect id="Rectangle-13" width="79.459" height="15" x="398.252" y="0" fill="#DBD8D8"/><rect id="Rectangle-13" width="51.696" height="15" x="494.943" y="0" fill="#DBD8D8"/><rect id="Rectangle-13" width="48.824" height="15" x="560.999" y="0" fill="#DBD8D8"/></g></g><rect id="overlay" width="920" height="225" x="1" y="0" fill="#FFF" fill-opacity=".55"/></g><g id="speed" transform="translate(659.000000, 349.000000)"><rect id="Rectangle" width="27.86" height="15" x="37.336" y="167" fill="#2FAE57"/><rect id="Rectangle" width="20.655" height="15" x="65.099" y="167" fill="#4BA4E7"/><rect id="Rectangle" width="16.031" height="15" x="45.952" y="200" fill="#2FAE57"/><rect id="Rectangle-" width="15.71" height="15" x="61.27" y="200" fill="#4BA4E7"/><rect id="Rectangle-" width="27.86" height="15" x="26.805" y="132" fill="#2FAE57"/><rect id="Rectangle" width="20.655" height="15" x="54.568" y="132" fill="#4BA4E7"/><rect id="Rectangle" width="27.86" height="15" x="17.232" y="101" fill="#2FAE57"/><rect id="Rectangle" width="13.958" height="15" x="44.995" y="101" fill="#4BA4E7"/><rect id="Rectangle" width="20.655" height="15" x="11.992" y="67" fill="#2FAE57"/><rect id="Rectangle" width="13.958" height="15" x="32.549" y="67" fill="#4BA4E7"/><rect id="Rectangle" width="16.031" height="15" x="5.29" y="35" fill="#2FAE57"/><rect id="Rectangle-" width="20.655" height="15" x="19.151" y="35" fill="#4BA4E7"/><rect id="Rectangle-" width="10.45" height="15" x="0" y="0" fill="#2FAE57"/><rect id="Rectangle-" width="20.655" height="15" x="7.155" y="0" fill="#4BA4E7"/></g><path id="divder" stroke="#EAEAEB" stroke-linecap="square" stroke-width="3" d="M20.5,339.5 L945.865356,339.5"/><g id="Speed-gauge-" transform="translate(328.000000, 74.000000)"><g id="speed-outline" transform="translate(0.000000, 2.000000)"><mask id="mask-24" fill="#fff"><use xlink:href="#path-23"/></mask><g id="Oval-" stroke="#FFF" stroke-width="14.168" mask="url(#mask-24)"><use mask="url(#mask-26)" xlink:href="#path-25"/></g></g><path id="Line" stroke="#FFF" stroke-linecap="square" stroke-width="7.084" d="M46.1066667,149.148993 L254.348228,149.148993"/><path id="gauge-line" fill="#E72A2D" d="M155.081379,132.624066 C155.015229,132.626094 154.948821,132.627116 154.882169,132.627116 C154.395878,132.627116 153.922552,132.572743 153.468182,132.469865 C152.804427,132.394628 151.893833,132.162947 151.167113,131.429442 C149.62741,130.313781 148.629108,128.522197 148.629108,126.502227 C148.629108,123.119545 151.428699,120.377339 154.882169,120.377339 C155.357229,120.377339 155.819915,120.429229 156.264644,120.527538 C167.543996,121.043681 205.086153,127.450459 205.086153,127.450459 C210.736184,128.389079 210.667842,129.368325 204.925994,129.644561 C204.925994,129.644561 162.306078,131.590023 156.130652,132.603685 C155.732096,132.669106 155.379616,132.657248 155.081379,132.624066 Z" transform="translate(178.953783, 126.514130) rotate(-32.000000) translate(-178.953783, -126.514130)"/><g id="angular-logo" transform="translate(132.000000, 120.000000)"><path id="background-mask" fill="#EAEAEB" d="M0.0167838345,0 L18.9284668,4.01730537 L36.656498,10.8978434 L35.6646042,20.2834702 C36.4835729,20.2834702 37.7833744,25.3201689 37.7793083,25.3641902 C37.7096348,26.1185132 37.7793083,35.0976279 37.7793083,35.0976279 L41,45.9999991 L0,46 L0.0167838345,0 Z"/><g id="Group" fill="#FFF" transform="translate(1.000000, 4.000000)"><g id="Shape"><polygon points="17.909 25.744 13.203 25.744 10.974 31.836 10.974 31.836 6.84 31.836 6.821 31.836 17.909 4.611 17.909 4.631 17.909 4.631 17.909 0 17.909 0 .171 6.926 2.877 32.607 17.909 41.724 17.909 41.724"/><polygon points="14.67 21.989 17.909 21.989 17.909 21.989 17.909 13.456"/></g><g id="Shape" opacity=".9" transform="translate(17.909016, 0.000000)"><polygon points="0 25.744 4.706 25.744 6.935 31.836 6.935 31.836 11.069 31.836 11.088 31.836 0 4.611 0 4.631 0 4.631 0 0 0 0 17.738 6.926 15.032 32.607 0 41.724 0 41.724"/><polygon points="3.239 21.989 0 21.989 0 21.989 0 13.456"/></g></g></g><g id="Lines" stroke="url(#linearGradient-27)" stroke-linecap="square" stroke-width="2.3" transform="translate(155.000000, 72.000000)"><path id="Line-Copy-3" d="M27.2768367,6.1378486 L22.7819389,17.8474575"/><path id="Line-Copy-6" d="M40,12 L33,23"/><path id="Line-Copy-9" d="M15.1748197,2.88436401 L12.7958773,15.1229617"/><path id="Line-Copy-10" d="M1.2029061,0.773628441 L0.767790904,13.2336973"/></g><g id="speed-gauge" transform="translate(17.000000, 0.000000)"><mask id="mask-29" fill="#fff"><use xlink:href="#path-28"/></mask><g id="Oval-25-Copy-3" stroke="url(#linearGradient-30)" stroke-width="16.1" mask="url(#mask-29)"><use mask="url(#mask-32)" xlink:href="#path-31"/></g><g id="Oval-56-Copy-+-Rectangle-331" fill="#E3E3E4" mask="url(#mask-29)"><g id="Oval-56-Copy"><path d="M3.15835059,41.6420067 C3.01165034,41.6498871 2.86389683,41.6538789 2.7151949,41.6538789 C2.00319306,41.6538789 1.31293476,41.5623635 0.655928305,41.3906458 C-0.126625332,41.2697588 -1.1063159,40.9666155 -1.92621611,40.1941776 C-3.95519512,38.7691732 -5.2778242,36.4346736 -5.2778242,33.7964996 C-5.2778242,29.4569888 -1.69922766,25.9391203 2.7151949,25.9391203 C3.27617754,25.9391203 3.82366226,25.995931 4.35202025,26.1040193 C18.6176095,26.7360162 66.8311582,35.0278524 66.8311582,35.0278524 C74.0912314,36.2433272 74.0037913,37.5054314 66.6519821,37.8545163 C66.6519821,37.8545163 12.2059231,40.3048396 4.3117252,41.5987591 C3.88366341,41.6689217 3.49713058,41.669147 3.15835269,41.6420066 Z" transform="translate(-373.291476, 407.207367) rotate(3.000000) translate(373.291476, -407.207367) translate(-406.791476, 373.207367) translate(33.471829, 33.798938) rotate(-46.000000) translate(-33.471829, -33.798938)"/></g></g></g></g></g></g></svg>
